<svg width="252" height="297" viewBox="0 0 252 297" fill="none" xmlns="http://www.w3.org/2000/svg">
<path d="M247.776 262.866H235.881V115.323C235.881 114.205 235.436 113.133 234.644 112.342C233.852 111.552 232.777 111.107 231.657 111.107H227.432V103.339C227.432 102.691 227.281 102.051 226.992 101.47C226.703 100.89 226.284 100.383 225.767 99.9905C222.749 89.7528 211.048 82.0504 197.108 82.0504C183.167 82.0504 171.472 89.7287 168.449 99.9905C167.932 100.383 167.512 100.89 167.224 101.47C166.935 102.051 166.784 102.691 166.783 103.339V111.107H162.559C161.438 111.107 160.364 111.552 159.572 112.342C158.779 113.133 158.334 114.205 158.334 115.323V262.866H152.698V86.6573C152.698 85.5393 152.253 84.4671 151.461 83.6765C150.668 82.886 149.594 82.4418 148.473 82.4418H143.646V70.7347C143.646 69.6167 143.201 68.5445 142.408 67.7539C141.616 66.9634 140.542 66.5192 139.421 66.5192H132.481V52.6682C132.481 51.5502 132.036 50.478 131.244 49.6874C130.452 48.8968 129.377 48.4527 128.257 48.4527H126.097V4.9123C126.097 3.79428 125.651 2.72206 124.859 1.9315C124.067 1.14094 122.993 0.696777 121.872 0.696777H116.556C115.435 0.696777 114.361 1.14094 113.569 1.9315C112.776 2.72206 112.331 3.79428 112.331 4.9123V48.4527H110.177C109.056 48.4527 107.982 48.8968 107.19 49.6874C106.398 50.478 105.952 51.5502 105.952 52.6682V66.5192H99.0065C97.8861 66.5192 96.8116 66.9634 96.0194 67.7539C95.2272 68.5445 94.7821 69.6167 94.7821 70.7347V82.4418H89.9543C88.8339 82.4418 87.7595 82.886 86.9673 83.6765C86.1751 84.4671 85.73 85.5393 85.73 86.6573V262.866H79.6952V233.117C79.6952 231.999 79.2502 230.926 78.458 230.136C77.6657 229.345 76.5912 228.901 75.4709 228.901H64.8014V63.2914C64.8017 62.4814 64.5681 61.6884 64.1285 61.0074C63.689 60.3264 63.0622 59.7862 62.3231 59.4514C61.584 59.1166 60.7638 59.0014 59.9608 59.1195C59.1578 59.2377 58.4058 59.5842 57.795 60.1177L15.2559 97.2625C14.8027 97.6583 14.4395 98.1462 14.1907 98.6936C13.942 99.241 13.8134 99.8351 13.8136 100.436V228.883H4.22434C3.10398 228.883 2.02952 229.327 1.23731 230.118C0.445088 230.908 0 231.981 0 233.099V292.532C0 293.65 0.445088 294.722 1.23731 295.512C2.02952 296.303 3.10398 296.747 4.22434 296.747H247.776C248.896 296.747 249.97 296.303 250.763 295.512C251.555 294.722 252 293.65 252 292.532V267.058C251.994 265.944 251.546 264.878 250.754 264.092C249.963 263.307 248.892 262.866 247.776 262.866ZM8.44868 237.332H71.2586V262.866H8.44868V237.332ZM243.551 288.34H8.44868V271.297H243.551V288.34ZM94.1666 90.8729H144.213V262.866H94.1666V90.8729ZM103.219 74.9503H135.203V82.4418H103.219V74.9503ZM124.021 66.5192H114.365V56.8837H124.021V66.5192ZM166.759 119.514H227.445V262.842H166.747L166.759 119.514ZM197.102 90.4574C205.55 90.4574 212.883 94.0045 216.19 99.0992H178.014C181.309 94.0165 188.617 90.4694 197.09 90.4694L197.102 90.4574ZM176.39 107.53H218.978V111.083H175.226V107.53H176.39ZM22.2864 102.357L56.3769 72.5836V228.889H49.8593V106.82H41.4106V228.901H37.2406V106.82H28.7919V228.901H22.2744L22.2864 102.357Z" fill="black" fill-opacity="0.2"/>
</svg>
