<svg width="38" height="37" viewBox="0 0 38 37" fill="none" xmlns="http://www.w3.org/2000/svg">
<path d="M12.8638 11.5815H21.7241C22.2288 11.5231 22.7402 11.5721 23.2246 11.7254C23.709 11.8786 24.1556 12.1326 24.5349 12.4707C24.9143 12.8087 25.2178 13.2232 25.4257 13.6869C25.6336 14.1506 25.741 14.653 25.741 15.1612C25.741 15.6694 25.6336 16.1718 25.4257 16.6355C25.2178 17.0992 24.9143 17.5137 24.5349 17.8517C24.1556 18.1898 23.709 18.4438 23.2246 18.597C22.7402 18.7503 22.2288 18.7993 21.7241 18.7409H16.077M21.7241 18.7807C22.2109 18.7578 22.6974 18.8339 23.154 19.0045C23.6106 19.1751 24.0278 19.4365 24.3805 19.773C24.7331 20.1095 25.0138 20.5141 25.2056 20.9622C25.3974 21.4104 25.4963 21.8928 25.4963 22.3803C25.4963 22.8678 25.3974 23.3502 25.2056 23.7983C25.0138 24.2465 24.7331 24.6511 24.3805 24.9876C24.0278 25.3241 23.6106 25.5855 23.154 25.7561C22.6974 25.9267 22.2109 26.0028 21.7241 25.9799H12.8638M15.9339 8.4552V29.1141M20.8094 8.4552V11.4781M20.8094 26.0913V29.1141" stroke="white" stroke-width="1.5" stroke-linecap="round" stroke-linejoin="round"/>
<path d="M12.8638 11.5815H21.7241C22.2288 11.5231 22.7402 11.5721 23.2246 11.7254C23.709 11.8786 24.1556 12.1326 24.5349 12.4707C24.9143 12.8087 25.2178 13.2232 25.4257 13.6869C25.6336 14.1506 25.741 14.653 25.741 15.1612C25.741 15.6694 25.6336 16.1718 25.4257 16.6355C25.2178 17.0992 24.9143 17.5137 24.5349 17.8517C24.1556 18.1898 23.709 18.4438 23.2246 18.597C22.7402 18.7503 22.2288 18.7993 21.7241 18.7409H16.077M21.7241 18.7807C22.2109 18.7578 22.6974 18.8339 23.154 19.0045C23.6106 19.1751 24.0278 19.4365 24.3805 19.773C24.7331 20.1095 25.0138 20.5141 25.2056 20.9622C25.3974 21.4104 25.4963 21.8928 25.4963 22.3803C25.4963 22.8678 25.3974 23.3502 25.2056 23.7983C25.0138 24.2465 24.7331 24.6511 24.3805 24.9876C24.0278 25.3241 23.6106 25.5855 23.154 25.7561C22.6974 25.9267 22.2109 26.0028 21.7241 25.9799H12.8638M15.9339 8.4552V29.1141M20.8094 8.4552V11.4781M20.8094 26.0913V29.1141" stroke="url(#paint0_linear_0_1)" stroke-width="1.5" stroke-linecap="round" stroke-linejoin="round"/>
<path d="M12.8638 11.5815H21.7241C22.2288 11.5231 22.7402 11.5721 23.2246 11.7254C23.709 11.8786 24.1556 12.1326 24.5349 12.4707C24.9143 12.8087 25.2178 13.2232 25.4257 13.6869C25.6336 14.1506 25.741 14.653 25.741 15.1612C25.741 15.6694 25.6336 16.1718 25.4257 16.6355C25.2178 17.0992 24.9143 17.5137 24.5349 17.8517C24.1556 18.1898 23.709 18.4438 23.2246 18.597C22.7402 18.7503 22.2288 18.7993 21.7241 18.7409H16.077M21.7241 18.7807C22.2109 18.7578 22.6974 18.8339 23.154 19.0045C23.6106 19.1751 24.0278 19.4365 24.3805 19.773C24.7331 20.1095 25.0138 20.5141 25.2056 20.9622C25.3974 21.4104 25.4963 21.8928 25.4963 22.3803C25.4963 22.8678 25.3974 23.3502 25.2056 23.7983C25.0138 24.2465 24.7331 24.6511 24.3805 24.9876C24.0278 25.3241 23.6106 25.5855 23.154 25.7561C22.6974 25.9267 22.2109 26.0028 21.7241 25.9799H12.8638M15.9339 8.4552V29.1141M20.8094 8.4552V11.4781M20.8094 26.0913V29.1141" stroke="url(#paint1_linear_0_1)" stroke-width="1.5" stroke-linecap="round" stroke-linejoin="round"/>
<path d="M11.7502 3.09409C14.0228 2.03972 16.4988 1.49664 19.0039 1.50311C23.0108 1.50728 26.8922 2.90122 29.9865 5.44732C33.0809 7.99342 35.1965 11.5341 35.9728 15.4657C36.7491 19.3973 36.1381 23.4765 34.2438 27.008C32.3496 30.5394 29.2894 33.3045 25.5849 34.8318C21.8804 36.3592 17.7609 36.5542 13.9287 35.3837C10.0966 34.2132 6.78887 31.7497 4.56953 28.413C2.35018 25.0763 1.35658 21.0731 1.75807 17.0857C2.15956 13.0983 3.9313 9.37361 6.77128 6.54653" stroke="white" stroke-width="1.5" stroke-linecap="round" stroke-linejoin="round"/>
<path d="M11.7502 3.09409C14.0228 2.03972 16.4988 1.49664 19.0039 1.50311C23.0108 1.50728 26.8922 2.90122 29.9865 5.44732C33.0809 7.99342 35.1965 11.5341 35.9728 15.4657C36.7491 19.3973 36.1381 23.4765 34.2438 27.008C32.3496 30.5394 29.2894 33.3045 25.5849 34.8318C21.8804 36.3592 17.7609 36.5542 13.9287 35.3837C10.0966 34.2132 6.78887 31.7497 4.56953 28.413C2.35018 25.0763 1.35658 21.0731 1.75807 17.0857C2.15956 13.0983 3.9313 9.37361 6.77128 6.54653" stroke="url(#paint2_linear_0_1)" stroke-width="1.5" stroke-linecap="round" stroke-linejoin="round"/>
<path d="M11.7502 3.09409C14.0228 2.03972 16.4988 1.49664 19.0039 1.50311C23.0108 1.50728 26.8922 2.90122 29.9865 5.44732C33.0809 7.99342 35.1965 11.5341 35.9728 15.4657C36.7491 19.3973 36.1381 23.4765 34.2438 27.008C32.3496 30.5394 29.2894 33.3045 25.5849 34.8318C21.8804 36.3592 17.7609 36.5542 13.9287 35.3837C10.0966 34.2132 6.78887 31.7497 4.56953 28.413C2.35018 25.0763 1.35658 21.0731 1.75807 17.0857C2.15956 13.0983 3.9313 9.37361 6.77128 6.54653" stroke="url(#paint3_linear_0_1)" stroke-width="1.5" stroke-linecap="round" stroke-linejoin="round"/>
<defs>
<linearGradient id="paint0_linear_0_1" x1="12.8631" y1="8.45602" x2="31.4099" y2="20.0167" gradientUnits="userSpaceOnUse">
<stop stop-color="#AF8338"/>
<stop offset="0.1" stop-color="#AF8338"/>
<stop offset="0.11" stop-color="#AF8338"/>
<stop offset="0.16" stop-color="#C09951"/>
<stop offset="0.26" stop-color="#D9BB77"/>
<stop offset="0.34" stop-color="#EBD392"/>
<stop offset="0.42" stop-color="#F6E2A2"/>
<stop offset="0.48" stop-color="#FAE7A8"/>
<stop offset="0.9" stop-color="#AF8338"/>
<stop offset="0.96" stop-color="#825428"/>
<stop offset="1" stop-color="#6F4022"/>
</linearGradient>
<linearGradient id="paint1_linear_0_1" x1="10.1564" y1="32.6128" x2="26.7183" y2="32.3444" gradientUnits="userSpaceOnUse">
<stop stop-color="#D59647"/>
<stop offset="0.19" stop-color="#DBA868"/>
<stop offset="0.36" stop-color="#F0E088"/>
<stop offset="0.46" stop-color="#DAA35F"/>
<stop offset="0.54" stop-color="#D59647"/>
<stop offset="0.66" stop-color="#9A6830"/>
<stop offset="0.77" stop-color="#EFE188"/>
<stop offset="0.91" stop-color="#D59647"/>
<stop offset="0.93" stop-color="#BD843E"/>
<stop offset="0.98" stop-color="#805426"/>
<stop offset="1" stop-color="#68421D"/>
</linearGradient>
<linearGradient id="paint2_linear_0_1" x1="1.66898" y1="1.50443" x2="36.3026" y2="36.1323" gradientUnits="userSpaceOnUse">
<stop stop-color="#AF8338"/>
<stop offset="0.1" stop-color="#AF8338"/>
<stop offset="0.11" stop-color="#AF8338"/>
<stop offset="0.16" stop-color="#C09951"/>
<stop offset="0.26" stop-color="#D9BB77"/>
<stop offset="0.34" stop-color="#EBD392"/>
<stop offset="0.42" stop-color="#F6E2A2"/>
<stop offset="0.48" stop-color="#FAE7A8"/>
<stop offset="0.9" stop-color="#AF8338"/>
<stop offset="0.96" stop-color="#825428"/>
<stop offset="1" stop-color="#6F4022"/>
</linearGradient>
<linearGradient id="paint3_linear_0_1" x1="-5.60981" y1="42.0046" x2="38.9105" y2="40.8472" gradientUnits="userSpaceOnUse">
<stop stop-color="#D59647"/>
<stop offset="0.19" stop-color="#DBA868"/>
<stop offset="0.36" stop-color="#F0E088"/>
<stop offset="0.46" stop-color="#DAA35F"/>
<stop offset="0.54" stop-color="#D59647"/>
<stop offset="0.66" stop-color="#9A6830"/>
<stop offset="0.77" stop-color="#EFE188"/>
<stop offset="0.91" stop-color="#D59647"/>
<stop offset="0.93" stop-color="#BD843E"/>
<stop offset="0.98" stop-color="#805426"/>
<stop offset="1" stop-color="#68421D"/>
</linearGradient>
</defs>
</svg>
