<svg width="57" height="58" viewBox="0 0 57 58" fill="none" xmlns="http://www.w3.org/2000/svg">
<circle cx="28.5" cy="28.6262" r="28" fill="#282828" stroke="url(#paint0_linear_1_3372)"/>
<path d="M36.5304 22.6566C36.8232 22.3637 36.8232 21.8888 36.5304 21.5959C36.2375 21.303 35.7626 21.303 35.4697 21.5959L29 28.0656L22.5303 21.5959C22.2374 21.303 21.7626 21.303 21.4697 21.5959C21.1768 21.8888 21.1768 22.3637 21.4697 22.6566L27.9394 29.1262L21.4697 35.5959C21.1768 35.8888 21.1768 36.3637 21.4697 36.6566C21.7626 36.9494 22.2375 36.9494 22.5304 36.6566L29 30.1869L35.4697 36.6566C35.7626 36.9494 36.2374 36.9494 36.5303 36.6566C36.8232 36.3637 36.8232 35.8888 36.5303 35.5959L30.0607 29.1262L36.5304 22.6566Z" fill="url(#paint1_linear_1_3372)"/>
<defs>
<linearGradient id="paint0_linear_1_3372" x1="-11.9838" y1="66.7794" x2="61.2953" y2="64.8742" gradientUnits="userSpaceOnUse">
<stop stop-color="#D59647"/>
<stop offset="0.19" stop-color="#DBA868"/>
<stop offset="0.36" stop-color="#F0E088"/>
<stop offset="0.46" stop-color="#DAA35F"/>
<stop offset="0.54" stop-color="#D59647"/>
<stop offset="0.66" stop-color="#9A6830"/>
<stop offset="0.77" stop-color="#EFE188"/>
<stop offset="0.91" stop-color="#D59647"/>
<stop offset="0.93" stop-color="#BD843E"/>
<stop offset="0.98" stop-color="#805426"/>
<stop offset="1" stop-color="#68421D"/>
</linearGradient>
<linearGradient id="paint1_linear_1_3372" x1="17.9912" y1="39.5012" x2="37.918" y2="38.9831" gradientUnits="userSpaceOnUse">
<stop stop-color="#D59647"/>
<stop offset="0.19" stop-color="#DBA868"/>
<stop offset="0.36" stop-color="#F0E088"/>
<stop offset="0.46" stop-color="#DAA35F"/>
<stop offset="0.54" stop-color="#D59647"/>
<stop offset="0.66" stop-color="#9A6830"/>
<stop offset="0.77" stop-color="#EFE188"/>
<stop offset="0.91" stop-color="#D59647"/>
<stop offset="0.93" stop-color="#BD843E"/>
<stop offset="0.98" stop-color="#805426"/>
<stop offset="1" stop-color="#68421D"/>
</linearGradient>
</defs>
</svg>
