<svg width="28" height="28" viewBox="0 0 28 28" fill="none" xmlns="http://www.w3.org/2000/svg">
<path fill-rule="evenodd" clip-rule="evenodd" d="M0 8C0 3.54771 3.54771 0 8 0H20C24.4523 0 28 3.54771 28 8V20C28 24.4523 24.4523 28 20 28H8C3.54771 28 0 24.4523 0 20V8ZM20 2H8C4.65228 2 2 4.65228 2 8V20C2 23.3477 4.65228 26 8 26H20C23.3477 26 26 23.3477 26 20V8C26 4.65228 23.3477 2 20 2Z" fill="white"/>
<path fill-rule="evenodd" clip-rule="evenodd" d="M0 8C0 3.54771 3.54771 0 8 0H20C24.4523 0 28 3.54771 28 8V20C28 24.4523 24.4523 28 20 28H8C3.54771 28 0 24.4523 0 20V8ZM20 2H8C4.65228 2 2 4.65228 2 8V20C2 23.3477 4.65228 26 8 26H20C23.3477 26 26 23.3477 26 20V8C26 4.65228 23.3477 2 20 2Z" fill="url(#paint0_linear_0_1)"/>
<path d="M21 7C21.5523 7 22 6.55228 22 6C22 5.44771 21.5523 5 21 5C20.4477 5 20 5.44771 20 6C20 6.55228 20.4477 7 21 7Z" fill="white"/>
<path fill-rule="evenodd" clip-rule="evenodd" d="M14 9C11.2386 9 9 11.2386 9 14C9 16.7614 11.2386 19 14 19C16.7614 19 19 16.7614 19 14C19 11.2386 16.7614 9 14 9ZM7 14C7 10.134 10.134 7 14 7C17.866 7 21 10.134 21 14C21 17.866 17.866 21 14 21C10.134 21 7 17.866 7 14Z" fill="white"/>
<path fill-rule="evenodd" clip-rule="evenodd" d="M14 9C11.2386 9 9 11.2386 9 14C9 16.7614 11.2386 19 14 19C16.7614 19 19 16.7614 19 14C19 11.2386 16.7614 9 14 9ZM7 14C7 10.134 10.134 7 14 7C17.866 7 21 10.134 21 14C21 17.866 17.866 21 14 21C10.134 21 7 17.866 7 14Z" fill="url(#paint1_linear_0_1)"/>
<defs>
<linearGradient id="paint0_linear_0_1" x1="-17.1111" y1="44.3333" x2="40.1107" y2="14.7823" gradientUnits="userSpaceOnUse">
<stop stop-color="#D59647"/>
<stop offset="0.19" stop-color="#DBA868"/>
<stop offset="0.36" stop-color="#F0E088"/>
<stop offset="0.46" stop-color="#DAA35F"/>
<stop offset="0.54" stop-color="#D59647"/>
<stop offset="0.66" stop-color="#9A6830"/>
<stop offset="0.77" stop-color="#EFE188"/>
<stop offset="0.91" stop-color="#D59647"/>
<stop offset="0.93" stop-color="#BD843E"/>
<stop offset="0.98" stop-color="#805426"/>
<stop offset="1" stop-color="#68421D"/>
</linearGradient>
<linearGradient id="paint1_linear_0_1" x1="-1.55555" y1="29.1667" x2="27.0553" y2="14.3911" gradientUnits="userSpaceOnUse">
<stop stop-color="#D59647"/>
<stop offset="0.19" stop-color="#DBA868"/>
<stop offset="0.36" stop-color="#F0E088"/>
<stop offset="0.46" stop-color="#DAA35F"/>
<stop offset="0.54" stop-color="#D59647"/>
<stop offset="0.66" stop-color="#9A6830"/>
<stop offset="0.77" stop-color="#EFE188"/>
<stop offset="0.91" stop-color="#D59647"/>
<stop offset="0.93" stop-color="#BD843E"/>
<stop offset="0.98" stop-color="#805426"/>
<stop offset="1" stop-color="#68421D"/>
</linearGradient>
</defs>
</svg>
