<svg width="106" height="70" viewBox="0 0 106 70" fill="none" xmlns="http://www.w3.org/2000/svg">
<path d="M28.8 0.899998C34.1333 0.899998 38.8333 2 42.9 4.2C46.9667 6.33333 50.1667 9.4 52.5 13.4C54.8333 17.3333 56 21.9667 56 27.3C56 32.6333 54.8 37.4333 52.4 41.7C50.0667 45.9 46.7667 49.2333 42.5 51.7C38.3 54.1667 33.3667 55.4 27.7 55.4C22.5 55.4 17.8333 54.3 13.7 52.1C9.63333 49.9 6.4 46.8333 4 42.9C1.66667 38.9 0.5 34.2333 0.5 28.9C0.5 23.6333 1.66667 18.9 4 14.7C6.33333 10.4333 9.63333 7.06666 13.9 4.6C18.1667 2.13333 23.1333 0.899998 28.8 0.899998ZM27.9 2.7C24.3 2.7 21.3333 5 19 9.6C16.7333 14.1333 15.6 20.4667 15.6 28.6C15.6 34.6 16.2 39.4333 17.4 43.1C18.6 46.7667 20.1667 49.4333 22.1 51.1C24.1 52.7667 26.2667 53.6 28.6 53.6C32.2 53.6 35.1333 51.3 37.4 46.7C39.7333 42.1 40.9 35.7333 40.9 27.6C40.9 21.6 40.3 16.7667 39.1 13.1C37.9 9.43333 36.3 6.8 34.3 5.2C32.3667 3.53333 30.2333 2.7 27.9 2.7ZM85.0531 0.899998C89.9865 0.899998 94.0531 1.93333 97.2531 4C100.52 6 102.153 8.8 102.153 12.4C102.153 14.9333 101.32 17.3 99.6531 19.5C98.0531 21.7 95.7198 23.6333 92.6531 25.3C89.6531 26.9 86.0531 28.1 81.8531 28.9C86.3865 28.7 90.4531 29.1667 94.0531 30.3C97.6531 31.4333 100.486 33.1667 102.553 35.5C104.686 37.7667 105.753 40.6333 105.753 44.1C105.753 47.9667 104.486 51.4333 101.953 54.5C99.4865 57.5667 96.1531 60.1667 91.9531 62.3C87.8198 64.5 83.2531 66.1667 78.2531 67.3C73.2531 68.5 68.2865 69.1 63.3531 69.1V67.1C66.4865 67.0333 69.6531 66.4667 72.8531 65.4C76.1198 64.4 79.0865 62.9333 81.7531 61C84.4865 59.1333 86.6865 56.8 88.3531 54C90.0198 51.1333 90.8531 47.8667 90.8531 44.2C90.8531 40.2667 89.9198 37.0333 88.0531 34.5C86.1865 31.9667 83.6198 30.5667 80.3531 30.3C79.3531 30.7667 78.4531 31.1667 77.6531 31.5C76.8531 31.7667 76.0531 31.9 75.2531 31.9C73.9865 31.9 73.3531 31.4333 73.3531 30.5C73.3531 29.7 73.6865 29.1333 74.3531 28.8C75.0198 28.4667 75.7531 28.3 76.5531 28.3C77.0865 28.3 77.6198 28.3667 78.1531 28.5C78.7531 28.5667 79.3865 28.6333 80.0531 28.7C82.9198 26.7 84.9198 24.5667 86.0531 22.3C87.1865 19.9667 87.7531 17.6333 87.7531 15.3C87.7531 12.3 86.9531 10.1 85.3531 8.7C83.8198 7.23333 81.6531 6.5 78.8531 6.5C76.2531 6.5 73.8198 7.16666 71.5531 8.5C69.2865 9.76666 67.3865 11.7 65.8531 14.3L64.0531 13.4C65.2531 11.2 66.7531 9.16667 68.5531 7.3C70.3531 5.36666 72.5865 3.83333 75.2531 2.7C77.9198 1.5 81.1865 0.899998 85.0531 0.899998Z" fill="white" fill-opacity="0.05"/>
</svg>
