<svg width="109" height="56" viewBox="0 0 109 56" fill="none" xmlns="http://www.w3.org/2000/svg">
<path d="M28.8 0.899998C34.1333 0.899998 38.8333 2 42.9 4.2C46.9667 6.33333 50.1667 9.4 52.5 13.4C54.8333 17.3333 56 21.9667 56 27.3C56 32.6333 54.8 37.4333 52.4 41.7C50.0667 45.9 46.7667 49.2333 42.5 51.7C38.3 54.1667 33.3667 55.4 27.7 55.4C22.5 55.4 17.8333 54.3 13.7 52.1C9.63333 49.9 6.4 46.8333 4 42.9C1.66667 38.9 0.5 34.2333 0.5 28.9C0.5 23.6333 1.66667 18.9 4 14.7C6.33333 10.4333 9.63333 7.06666 13.9 4.6C18.1667 2.13333 23.1333 0.899998 28.8 0.899998ZM27.9 2.7C24.3 2.7 21.3333 5 19 9.6C16.7333 14.1333 15.6 20.4667 15.6 28.6C15.6 34.6 16.2 39.4333 17.4 43.1C18.6 46.7667 20.1667 49.4333 22.1 51.1C24.1 52.7667 26.2667 53.6 28.6 53.6C32.2 53.6 35.1333 51.3 37.4 46.7C39.7333 42.1 40.9 35.7333 40.9 27.6C40.9 21.6 40.3 16.7667 39.1 13.1C37.9 9.43333 36.3 6.8 34.3 5.2C32.3667 3.53333 30.2333 2.7 27.9 2.7ZM87.9531 0.899998C93.0865 0.899998 97.1531 2 100.153 4.2C103.153 6.4 104.653 9.53333 104.653 13.6C104.653 16.8 103.653 19.7 101.653 22.3C99.6531 24.9 97.1865 27.3 94.2531 29.5C91.3198 31.7 88.3531 33.8333 85.3531 35.9C82.3531 37.9 79.8531 39.9667 77.8531 42.1H99.4531C102.186 42.1 103.92 41.7667 104.653 41.1C105.386 40.4333 105.886 39.2667 106.153 37.6H108.253C108.253 42.0667 108.286 45.5333 108.353 48C108.42 50.4667 108.52 52.6333 108.653 54.5C107.786 54.3 105.82 54.1667 102.753 54.1C99.7531 54.0333 96.7531 54 93.7531 54H64.6531V52.1C66.5198 50.1 68.8198 47.9 71.5531 45.5C74.2865 43.1 76.9531 40.4333 79.5531 37.5C82.2198 34.5667 84.4531 31.4 86.2531 28C88.0531 24.5333 88.9531 20.8333 88.9531 16.9C88.9531 13.3 88.1531 10.7 86.5531 9.1C84.9531 7.5 82.6531 6.7 79.6531 6.7C76.7865 6.7 74.2531 7.36667 72.0531 8.7C69.9198 9.96667 67.9865 11.8667 66.2531 14.4L64.5531 13.4C66.5531 10 69.3531 7.06666 72.9531 4.6C76.6198 2.13333 81.6198 0.899998 87.9531 0.899998Z" fill="white" fill-opacity="0.05"/>
</svg>
