<svg width="96" height="56" viewBox="0 0 96 56" fill="none" xmlns="http://www.w3.org/2000/svg">
<path d="M28.8 0.899998C34.1333 0.899998 38.8333 2 42.9 4.2C46.9667 6.33333 50.1667 9.4 52.5 13.4C54.8333 17.3333 56 21.9667 56 27.3C56 32.6333 54.8 37.4333 52.4 41.7C50.0667 45.9 46.7667 49.2333 42.5 51.7C38.3 54.1667 33.3667 55.4 27.7 55.4C22.5 55.4 17.8333 54.3 13.7 52.1C9.63333 49.9 6.4 46.8333 4 42.9C1.66667 38.9 0.5 34.2333 0.5 28.9C0.5 23.6333 1.66667 18.9 4 14.7C6.33333 10.4333 9.63333 7.06666 13.9 4.6C18.1667 2.13333 23.1333 0.899998 28.8 0.899998ZM27.9 2.7C24.3 2.7 21.3333 5 19 9.6C16.7333 14.1333 15.6 20.4667 15.6 28.6C15.6 34.6 16.2 39.4333 17.4 43.1C18.6 46.7667 20.1667 49.4333 22.1 51.1C24.1 52.7667 26.2667 53.6 28.6 53.6C32.2 53.6 35.1333 51.3 37.4 46.7C39.7333 42.1 40.9 35.7333 40.9 27.6C40.9 21.6 40.3 16.7667 39.1 13.1C37.9 9.43333 36.3 6.8 34.3 5.2C32.3667 3.53333 30.2333 2.7 27.9 2.7ZM88.6531 1.2V44.3C88.6531 47.2333 89.1865 49.2333 90.2531 50.3C91.3865 51.3667 93.2531 51.9 95.8531 51.9V54C94.5198 53.9333 92.5531 53.8667 89.9531 53.8C87.4198 53.6667 84.7865 53.6 82.0531 53.6C78.6531 53.6 75.3531 53.6667 72.1531 53.8C69.0198 53.8667 66.5865 53.9333 64.8531 54V51.9C67.8531 51.9 70.1531 51.3667 71.7531 50.3C73.4198 49.1667 74.2531 46.9667 74.2531 43.7V19.3C74.2531 16.1 73.9865 13.7333 73.4531 12.2C72.9198 10.6667 71.9198 9.66667 70.4531 9.2C68.9865 8.73333 66.9865 8.5 64.4531 8.5V6.3C70.1865 6.16666 74.9198 5.73333 78.6531 5C82.4531 4.26666 85.7865 3 88.6531 1.2Z" fill="white" fill-opacity="0.05"/>
</svg>
