<svg width="24" height="21" viewBox="0 0 24 21" fill="none" xmlns="http://www.w3.org/2000/svg">
<path fill-rule="evenodd" clip-rule="evenodd" d="M20.204 20.126L23.95 1.00001C23.95 1.00001 24 0.750003 24 0.500004C24 0.125004 23.667 3.19007e-06 23.375 3.19007e-06C22.9 -0.00099588 22.248 0.233004 22.249 0.234003L0.933 8.70201C0.933 8.70201 0 9.00001 0 9.62501C0 10.375 0.906999 10.637 0.906999 10.637L6.002 11.992L6.00818 11.9951L19.196 4.10301C19.416 3.93601 19.728 3.97602 19.897 4.19602C20.064 4.41601 20.023 4.72901 19.803 4.89602L9.971 13.992L9.97093 13.9925L9.972 13.993L18.086 20.726C18.086 20.726 18.383 21 18.959 21C20.043 21 20.204 20.126 20.204 20.126Z" fill="white"/>
<path fill-rule="evenodd" clip-rule="evenodd" d="M20.204 20.126L23.95 1.00001C23.95 1.00001 24 0.750003 24 0.500004C24 0.125004 23.667 3.19007e-06 23.375 3.19007e-06C22.9 -0.00099588 22.248 0.233004 22.249 0.234003L0.933 8.70201C0.933 8.70201 0 9.00001 0 9.62501C0 10.375 0.906999 10.637 0.906999 10.637L6.002 11.992L6.00818 11.9951L19.196 4.10301C19.416 3.93601 19.728 3.97602 19.897 4.19602C20.064 4.41601 20.023 4.72901 19.803 4.89602L9.971 13.992L9.97093 13.9925L9.972 13.993L18.086 20.726C18.086 20.726 18.383 21 18.959 21C20.043 21 20.204 20.126 20.204 20.126Z" fill="url(#paint0_linear_1_3546)"/>
<defs>
<linearGradient id="paint0_linear_1_3546" x1="-14.6667" y1="33.25" x2="31.4108" y2="6.05488" gradientUnits="userSpaceOnUse">
<stop stop-color="#D59647"/>
<stop offset="0.19" stop-color="#DBA868"/>
<stop offset="0.36" stop-color="#F0E088"/>
<stop offset="0.46" stop-color="#DAA35F"/>
<stop offset="0.54" stop-color="#D59647"/>
<stop offset="0.66" stop-color="#9A6830"/>
<stop offset="0.77" stop-color="#EFE188"/>
<stop offset="0.91" stop-color="#D59647"/>
<stop offset="0.93" stop-color="#BD843E"/>
<stop offset="0.98" stop-color="#805426"/>
<stop offset="1" stop-color="#68421D"/>
</linearGradient>
</defs>
</svg>
