<svg width="20" height="19" viewBox="0 0 20 19" fill="none" xmlns="http://www.w3.org/2000/svg">
<path fill-rule="evenodd" clip-rule="evenodd" d="M5.26824 1.04501C4.91324 0.25501 4.53924 0.239009 4.20024 0.225011C3.92324 0.213011 3.60724 0.21401 3.29124 0.21401C2.97524 0.21401 2.46124 0.33301 2.02624 0.808009C1.59124 1.28301 0.365234 2.43001 0.365234 4.76401C0.365234 7.09801 2.06524 9.35401 2.30224 9.67001C2.53924 9.98601 5.58424 14.929 10.4062 16.831C14.4132 18.411 15.2292 18.097 16.0992 18.018C16.9692 17.939 18.9062 16.871 19.3012 15.763C19.6962 14.655 19.6962 13.706 19.5782 13.508C19.4592 13.31 19.1432 13.192 18.6692 12.954C18.1952 12.716 15.8622 11.569 15.4272 11.411C14.9922 11.253 14.6762 11.174 14.3592 11.649C14.0432 12.123 13.1342 13.192 12.8572 13.508C12.5802 13.825 12.3032 13.865 11.8292 13.627C11.3552 13.389 9.82723 12.889 8.01423 11.273C6.60423 10.016 5.65223 8.46301 5.37523 7.98801C5.09823 7.51401 5.34523 7.25701 5.58323 7.02001C5.79623 6.80701 6.05723 6.46601 6.29523 6.18901C6.53223 5.91201 6.61123 5.71401 6.76923 5.39801C6.92723 5.08101 6.84823 4.80401 6.72923 4.56701C6.61223 4.32901 5.69023 1.98301 5.26823 1.04501L5.26824 1.04501Z" fill="white"/>
<path fill-rule="evenodd" clip-rule="evenodd" d="M5.26824 1.04501C4.91324 0.25501 4.53924 0.239009 4.20024 0.225011C3.92324 0.213011 3.60724 0.21401 3.29124 0.21401C2.97524 0.21401 2.46124 0.33301 2.02624 0.808009C1.59124 1.28301 0.365234 2.43001 0.365234 4.76401C0.365234 7.09801 2.06524 9.35401 2.30224 9.67001C2.53924 9.98601 5.58424 14.929 10.4062 16.831C14.4132 18.411 15.2292 18.097 16.0992 18.018C16.9692 17.939 18.9062 16.871 19.3012 15.763C19.6962 14.655 19.6962 13.706 19.5782 13.508C19.4592 13.31 19.1432 13.192 18.6692 12.954C18.1952 12.716 15.8622 11.569 15.4272 11.411C14.9922 11.253 14.6762 11.174 14.3592 11.649C14.0432 12.123 13.1342 13.192 12.8572 13.508C12.5802 13.825 12.3032 13.865 11.8292 13.627C11.3552 13.389 9.82723 12.889 8.01423 11.273C6.60423 10.016 5.65223 8.46301 5.37523 7.98801C5.09823 7.51401 5.34523 7.25701 5.58323 7.02001C5.79623 6.80701 6.05723 6.46601 6.29523 6.18901C6.53223 5.91201 6.61123 5.71401 6.76923 5.39801C6.92723 5.08101 6.84823 4.80401 6.72923 4.56701C6.61223 4.32901 5.69023 1.98301 5.26823 1.04501L5.26824 1.04501Z" fill="url(#paint0_linear_1_3532)"/>
<defs>
<linearGradient id="paint0_linear_1_3532" x1="-11.418" y1="28.528" x2="26.6823" y2="7.31234" gradientUnits="userSpaceOnUse">
<stop stop-color="#D59647"/>
<stop offset="0.19" stop-color="#DBA868"/>
<stop offset="0.36" stop-color="#F0E088"/>
<stop offset="0.46" stop-color="#DAA35F"/>
<stop offset="0.54" stop-color="#D59647"/>
<stop offset="0.66" stop-color="#9A6830"/>
<stop offset="0.77" stop-color="#EFE188"/>
<stop offset="0.91" stop-color="#D59647"/>
<stop offset="0.93" stop-color="#BD843E"/>
<stop offset="0.98" stop-color="#805426"/>
<stop offset="1" stop-color="#68421D"/>
</linearGradient>
</defs>
</svg>
