<svg width="48" height="48" viewBox="0 0 48 48" fill="none" xmlns="http://www.w3.org/2000/svg">
<path d="M14.5391 6H16.6641L18.0341 11.496H18.1671L19.4751 6.003H21.6221L19.1641 14.039V20H17.0521V14.297L14.5391 6ZM21.5251 11.923C21.5251 11.139 21.7791 10.512 22.2841 10.049C22.7881 9.583 23.4661 9.349 24.3191 9.349C25.0971 9.349 25.7321 9.594 26.2271 10.086C26.7221 10.574 26.9701 11.207 26.9701 11.98V17.215C26.9701 18.081 26.7281 18.763 26.2421 19.259C25.7561 19.753 25.0901 20 24.2351 20C23.4121 20 22.7581 19.741 22.2611 19.233C21.7681 18.725 21.5231 18.039 21.5231 17.178V11.922H21.5251V11.923ZM23.4551 17.368C23.4551 17.643 23.5211 17.862 23.6601 18.014C23.7921 18.164 23.9821 18.24 24.2311 18.24C24.4861 18.24 24.6851 18.163 24.8351 18.006C24.9841 17.855 25.0611 17.64 25.0611 17.368V11.846C25.0611 11.626 24.9821 11.447 24.8301 11.31C24.6791 11.175 24.4781 11.105 24.2311 11.105C24.0021 11.105 23.8141 11.175 23.6701 11.31C23.5271 11.447 23.4551 11.626 23.4551 11.846L23.4551 17.368ZM33.9181 9.605V20H32.0431V18.734C31.6971 19.148 31.3381 19.462 30.9621 19.675C30.5901 19.89 30.2271 20 29.8761 20C29.4411 20 29.1161 19.851 28.8951 19.548C28.6741 19.248 28.5661 18.797 28.5661 18.191V9.605H30.4401V17.491C30.4401 17.727 30.4801 17.901 30.5601 18.01C30.6351 18.114 30.7671 18.172 30.9401 18.172C31.0811 18.172 31.2551 18.101 31.4621 17.957C31.6751 17.816 31.8681 17.633 32.0431 17.413V9.605H33.9181Z" fill="#455A64"/>
<path d="M14.5391 6H16.6641L18.0341 11.496H18.1671L19.4751 6.003H21.6221L19.1641 14.039V20H17.0521V14.297L14.5391 6ZM21.5251 11.923C21.5251 11.139 21.7791 10.512 22.2841 10.049C22.7881 9.583 23.4661 9.349 24.3191 9.349C25.0971 9.349 25.7321 9.594 26.2271 10.086C26.7221 10.574 26.9701 11.207 26.9701 11.98V17.215C26.9701 18.081 26.7281 18.763 26.2421 19.259C25.7561 19.753 25.0901 20 24.2351 20C23.4121 20 22.7581 19.741 22.2611 19.233C21.7681 18.725 21.5231 18.039 21.5231 17.178V11.922H21.5251V11.923ZM23.4551 17.368C23.4551 17.643 23.5211 17.862 23.6601 18.014C23.7921 18.164 23.9821 18.24 24.2311 18.24C24.4861 18.24 24.6851 18.163 24.8351 18.006C24.9841 17.855 25.0611 17.64 25.0611 17.368V11.846C25.0611 11.626 24.9821 11.447 24.8301 11.31C24.6791 11.175 24.4781 11.105 24.2311 11.105C24.0021 11.105 23.8141 11.175 23.6701 11.31C23.5271 11.447 23.4551 11.626 23.4551 11.846L23.4551 17.368ZM33.9181 9.605V20H32.0431V18.734C31.6971 19.148 31.3381 19.462 30.9621 19.675C30.5901 19.89 30.2271 20 29.8761 20C29.4411 20 29.1161 19.851 28.8951 19.548C28.6741 19.248 28.5661 18.797 28.5661 18.191V9.605H30.4401V17.491C30.4401 17.727 30.4801 17.901 30.5601 18.01C30.6351 18.114 30.7671 18.172 30.9401 18.172C31.0811 18.172 31.2551 18.101 31.4621 17.957C31.6751 17.816 31.8681 17.633 32.0431 17.413V9.605H33.9181Z" fill="url(#paint0_linear_1_3563)"/>
<path d="M38.7993 26.439C38.7993 24.097 36.8593 22.199 34.4703 22.199C31.0583 22.056 27.5653 21.996 24.0003 22.001C20.4373 21.996 16.9443 22.057 13.5303 22.199C11.1433 22.199 9.20327 24.097 9.20327 26.439C9.06127 28.291 8.99527 30.145 9.00027 32.001C8.99527 33.854 9.06027 35.708 9.20427 37.562C9.20427 39.907 11.1423 41.805 13.5303 41.805C16.9443 41.945 20.4373 42.005 24.0003 42C27.5643 42.008 31.0583 41.944 34.4703 41.805C36.8593 41.805 38.7993 39.907 38.7993 37.562C38.9413 35.708 39.0083 33.854 39.0003 32.001C39.0083 30.145 38.9413 28.291 38.7993 26.439Z" fill="white"/>
<path d="M33.8509 30.346C33.6319 30.346 33.4829 30.404 33.3929 30.526C33.3289 30.617 33.2479 30.825 33.2479 31.278V32.052H34.4409V31.278C34.4409 30.832 34.3579 30.623 34.2899 30.521C34.2049 30.402 34.0609 30.346 33.8509 30.346L33.8509 30.346ZM26.8649 30.386C26.7789 30.428 26.6949 30.491 26.6069 30.579V36.455C26.7169 36.566 26.8239 36.646 26.9229 36.697C27.0339 36.752 27.1469 36.777 27.2689 36.777C27.4999 36.777 27.5719 36.686 27.5949 36.654C27.6519 36.583 27.7139 36.435 27.7139 36.114V31.109C27.7139 30.831 27.6609 30.616 27.5619 30.484C27.4279 30.306 27.1639 30.236 26.8649 30.386V30.386Z" fill="#FD3A28"/>
<path d="M38.7993 26.439C38.7993 24.097 36.8593 22.199 34.4703 22.199C31.0583 22.056 27.5653 21.996 24.0003 22.001C20.4373 21.996 16.9443 22.057 13.5303 22.199C11.1433 22.199 9.20327 24.097 9.20327 26.439C9.06127 28.291 8.99527 30.145 9.00027 32.001C8.99527 33.854 9.06027 35.708 9.20427 37.562C9.20427 39.907 11.1423 41.805 13.5303 41.805C16.9443 41.945 20.4373 42.005 24.0003 42C27.5643 42.008 31.0583 41.944 34.4703 41.805C36.8593 41.805 38.7993 39.907 38.7993 37.562C38.9413 35.708 39.0083 33.854 39.0003 32.001C39.0083 30.145 38.9413 28.291 38.7993 26.439ZM15.7013 38.382C15.7013 38.493 15.6093 38.586 15.4953 38.586H13.4463C13.3323 38.586 13.2403 38.493 13.2403 38.382V27.352H11.3263C11.2133 27.352 11.1213 27.26 11.1213 27.149V25.245C11.1213 25.133 11.2133 25.041 11.3263 25.041H17.6173C17.7313 25.041 17.8233 25.133 17.8233 25.245V27.149C17.8233 27.26 17.7323 27.352 17.6173 27.352H15.7013L15.7013 38.382ZM22.9953 38.382C22.9953 38.493 22.9033 38.586 22.7893 38.586H20.9673C20.8533 38.586 20.7613 38.493 20.7613 38.382V37.831C20.5183 38.064 20.2753 38.249 20.0233 38.391C19.6263 38.618 19.2473 38.727 18.8633 38.727C18.3753 38.727 17.9993 38.551 17.7463 38.21C17.5083 37.886 17.3853 37.407 17.3853 36.789V28.689C17.3853 28.577 17.4773 28.485 17.5923 28.485H19.4133C19.5273 28.485 19.6193 28.577 19.6193 28.689V36.117C19.6193 36.361 19.6633 36.46 19.6913 36.499C19.7043 36.516 19.7413 36.566 19.8963 36.566C19.9483 36.566 20.0683 36.544 20.2853 36.397C20.4613 36.282 20.6193 36.138 20.7583 35.972V28.689C20.7583 28.577 20.8503 28.485 20.9653 28.485H22.7863C22.9003 28.485 22.9923 28.577 22.9923 28.689V38.381H22.9953L22.9953 38.382ZM30.0003 36.373C30.0003 37.109 29.8413 37.683 29.5273 38.081C29.2013 38.499 28.7303 38.707 28.1293 38.707C27.7463 38.707 27.3963 38.63 27.0833 38.474C26.9173 38.391 26.7563 38.283 26.6043 38.149V38.382C26.6043 38.496 26.5113 38.586 26.3983 38.586H24.5613C24.4473 38.586 24.3543 38.496 24.3543 38.382V25.242C24.3543 25.13 24.4463 25.039 24.5613 25.039H26.3983C26.5113 25.039 26.6043 25.13 26.6043 25.242V28.959C26.7543 28.823 26.9143 28.709 27.0783 28.616C27.3873 28.446 27.7033 28.36 28.0193 28.36C28.6603 28.36 29.1623 28.598 29.5033 29.066C29.8313 29.516 29.9983 30.167 29.9983 30.999L30.0003 36.373ZM36.7293 33.765C36.7293 33.878 36.6363 33.97 36.5223 33.97H33.2493V35.591C33.2493 36.183 33.3313 36.436 33.3973 36.542C33.4503 36.63 33.5493 36.741 33.8353 36.741C34.0653 36.741 34.2233 36.686 34.3043 36.577C34.3413 36.519 34.4433 36.297 34.4433 35.589V34.914C34.4433 34.8 34.5363 34.71 34.6503 34.71H36.5223C36.6363 34.71 36.7273 34.8 36.7273 34.914V35.643C36.7273 36.687 36.4783 37.487 35.9903 38.027C35.5003 38.57 34.7603 38.847 33.7923 38.847C32.9203 38.847 32.2183 38.551 31.7133 37.976C31.2133 37.405 30.9583 36.622 30.9583 35.643V31.291C30.9583 30.399 31.2363 29.661 31.7883 29.095C32.3383 28.527 33.0623 28.238 33.9323 28.238C34.8223 28.238 35.5193 28.509 36.0043 29.041C36.4843 29.567 36.7283 30.325 36.7283 31.292V33.766H36.7293L36.7293 33.765Z" fill="url(#paint1_linear_1_3563)"/>
<defs>
<linearGradient id="paint0_linear_1_3563" x1="2.69633" y1="28.1667" x2="35.8966" y2="4.4335" gradientUnits="userSpaceOnUse">
<stop stop-color="#D59647"/>
<stop offset="0.19" stop-color="#DBA868"/>
<stop offset="0.36" stop-color="#F0E088"/>
<stop offset="0.46" stop-color="#DAA35F"/>
<stop offset="0.54" stop-color="#D59647"/>
<stop offset="0.66" stop-color="#9A6830"/>
<stop offset="0.77" stop-color="#EFE188"/>
<stop offset="0.91" stop-color="#D59647"/>
<stop offset="0.93" stop-color="#BD843E"/>
<stop offset="0.98" stop-color="#805426"/>
<stop offset="1" stop-color="#68421D"/>
</linearGradient>
<linearGradient id="paint1_linear_1_3563" x1="-9.3339" y1="53.6673" x2="39.2018" y2="16.0682" gradientUnits="userSpaceOnUse">
<stop stop-color="#D59647"/>
<stop offset="0.19" stop-color="#DBA868"/>
<stop offset="0.36" stop-color="#F0E088"/>
<stop offset="0.46" stop-color="#DAA35F"/>
<stop offset="0.54" stop-color="#D59647"/>
<stop offset="0.66" stop-color="#9A6830"/>
<stop offset="0.77" stop-color="#EFE188"/>
<stop offset="0.91" stop-color="#D59647"/>
<stop offset="0.93" stop-color="#BD843E"/>
<stop offset="0.98" stop-color="#805426"/>
<stop offset="1" stop-color="#68421D"/>
</linearGradient>
</defs>
</svg>
